<svg xmlns="http://www.w3.org/2000/svg" viewBox="0 0 35 37" width="36px" class="">
    <path fill="white" fill-rule="evenodd"
          d="M17.5689 0a2.4827 2.4827 0 012.0555 1.2776L23.041 6.712l5.0959-3.6183a2.4842 2.4842 0 012.3854-.399c.79.37 1.328 1.1279 1.4172 1.9954L34.933 21.476a5.3388 5.3388 0 01-1.9958 4.8894l-13.7715 9.84a2.7884 2.7884 0 01-1.4603.56 1.6305 1.6305 0 01-.135.009c-.0137-.0007-.0274-.0004-.0412-.0001l-.0248.0008a2.773 2.773 0 01-1.652-.56L2.0408 26.3756a5.3391 5.3391 0 01-1.9958-4.89L3.039 4.7003a2.4846 2.4846 0 011.4167-1.9958 2.486 2.486 0 012.3854.399L12.012 6.78l3.5013-5.5126A2.485 2.485 0 0117.569 0zm-.0859 12.568l-2.3392 1.663a3.821 3.821 0 00-1.377 3.383l3.0536 16.785a.9997.9997 0 00.0202.1583l-.03-.0587a.9974.9974 0 00.7783.5692.9986.9986 0 00.379-.1296.9903.9903 0 00.1897-.5393l3.0537-16.785a3.8119 3.8119 0 00-1.377-3.3733L17.483 12.568zM5.0348 4.1412a.9977.9977 0 00-.4989.8185L1.542 21.745a3.8728 3.8728 0 001.3874 3.3934L14.103 33.105 6.362 20.9567a5.2877 5.2877 0 010-5.2786l4.821-7.5921-5.22-3.7148a.9984.9984 0 00-.9282-.23zm24.699-.0395a1.2871 1.2871 0 00-.7085.2692L23.87 8.031l4.8259 7.6765a5.3376 5.3376 0 010 5.2889L21.172 32.882l10.8072-7.7438a3.87 3.87 0 001.3868-3.393L30.4523 4.9897a.999.999 0 00-.4988-.8185.5982.5982 0 00-.2198-.0695zM22.628 8.913l-3.81 2.706 1.9047 1.3542a5.2904 5.2904 0 011.9958 4.89L20.226 31.562l7.1927-11.3636a3.8626 3.8626 0 000-3.6626L22.628 8.913zm-10.208.053l-4.7607 7.4802a3.8228 3.8228 0 000 3.6524L14.679 31.145 12.26 17.8432a5.2884 5.2884 0 011.9958-4.8899l1.8852-1.3403-3.721-2.647zm5.1489-7.449a.9986.9986 0 00-.7686.5684L13.251 7.661l4.225 3.004 4.323-3.071-3.4616-5.5086a.9979.9979 0 00-.7685-.5684z"></path>
</svg>
