<svg xmlns="http://www.w3.org/2000/svg" xmlns:xlink="http://www.w3.org/1999/xlink" version="1.1" width="1000" height="1000" viewBox="0 0 1000 1000" xml:space="preserve">
<desc>Created with Fabric.js 3.5.0</desc>
<defs>
</defs>
<g transform="matrix(1.5623 0 0 1.5623 500.0004 500.0004)" id="880231">
<g style="" vector-effect="non-scaling-stroke">
		<g transform="matrix(1 0 0 1 -1187.75 -351.85)" clip-path="url(#CLIPPATH_1)">
<clipPath id="CLIPPATH_1">
	<path transform="matrix(1 0 0 1 -712.36 -191.32) translate(1360.11, 3.17)" id="SVGID_00000173130848214819257690000006969194420511720378_" clip-path="url(#undefined)" d="M -1360.11 -820 c -451.13 0 -816.83 365.71 -816.83 816.83 s 365.71 816.83 816.83 816.83 S -543.28 447.96 -543.28 -3.17 S -908.99 -820 -1360.11 -820 z M -1360.11 173.96 c -90.92 0 -164.62 -73.71 -164.62 -164.62 s 73.7 -164.62 164.62 -164.62 s 164.62 73.71 164.62 164.62 S -1269.2 173.96 -1360.11 173.96 z" stroke-linecap="round"/>
</clipPath>
<line style="stroke: rgb(255,255,255); stroke-width: 2.5714; stroke-dasharray: none; stroke-linecap: butt; stroke-dashoffset: 0; stroke-linejoin: miter; stroke-miterlimit: 10; is-custom-font: none; font-file-url: none; fill: none; fill-rule: nonzero; opacity: 1;" x1="-712.3599999999999" y1="-191.32000000000002" x2="712.3599999999999" y2="191.32000000000002"/>
</g>
		<g transform="matrix(1 0 0 1 -1168.515 -465.86)" clip-path="url(#CLIPPATH_2)">
<clipPath id="CLIPPATH_2">
	<path transform="matrix(1 0 0 1 -731.6 -64.8062) translate(1360.115, -9.3338)" id="SVGID_00000098211908311586356930000004503342945312614294_" clip-path="url(#undefined)" d="M -1447.82 -542.57 c -297.99 47.35 -501.17 327.31 -453.81 625.3 c 47.35 297.99 327.31 501.17 625.3 453.81 c 297.99 -47.35 501.17 -327.31 453.81 -625.3 C -869.87 -386.74 -1149.83 -589.92 -1447.82 -542.57 z M -1132 1444.81 c -792.79 125.98 -1537.6 -414.57 -1663.59 -1207.36 c -125.98 -792.79 414.57 -1537.6 1207.36 -1663.59 S -50.62 -1011.57 75.36 -218.78 S -339.21 1318.82 -1132 1444.81 z" stroke-linecap="round"/>
</clipPath>
<line style="stroke: rgb(255,255,255); stroke-width: 2.5714; stroke-dasharray: none; stroke-linecap: butt; stroke-dashoffset: 0; stroke-linejoin: miter; stroke-miterlimit: 10; is-custom-font: none; font-file-url: none; fill: none; fill-rule: nonzero; opacity: 1;" x1="-733.5649999999999" y1="-77.14999999999999" x2="733.5649999999999" y2="77.14999999999999"/>
</g>
		<g transform="matrix(1 0 0 1 -1213.5 -278.575)" clip-path="url(#CLIPPATH_3)">
<clipPath id="CLIPPATH_3">
	<path transform="matrix(1 0 0 1 -686.615 -252.0912) translate(1360.115, -9.3338)" id="SVGID_00000098211908311586356930000004503342945312614294_" clip-path="url(#undefined)" d="M -1447.82 -542.57 c -297.99 47.35 -501.17 327.31 -453.81 625.3 c 47.35 297.99 327.31 501.17 625.3 453.81 c 297.99 -47.35 501.17 -327.31 453.81 -625.3 C -869.87 -386.74 -1149.83 -589.92 -1447.82 -542.57 z M -1132 1444.81 c -792.79 125.98 -1537.6 -414.57 -1663.59 -1207.36 c -125.98 -792.79 414.57 -1537.6 1207.36 -1663.59 S -50.62 -1011.57 75.36 -218.78 S -339.21 1318.82 -1132 1444.81 z" stroke-linecap="round"/>
</clipPath>
<line style="stroke: rgb(255,255,255); stroke-width: 2.5714; stroke-dasharray: none; stroke-linecap: butt; stroke-dashoffset: 0; stroke-linejoin: miter; stroke-miterlimit: 10; is-custom-font: none; font-file-url: none; fill: none; fill-rule: nonzero; opacity: 1;" x1="-688.5799999999999" y1="-264.435" x2="688.5799999999999" y2="264.435"/>
</g>
		<g transform="matrix(1 0 0 1 130.655 1.1)">
<path style="stroke: none; stroke-width: 1; stroke-dasharray: none; stroke-linecap: butt; stroke-dashoffset: 0; stroke-linejoin: miter; stroke-miterlimit: 4; is-custom-font: none; font-file-url: none; fill: rgb(255,246,227); fill-rule: nonzero; opacity: 1;" transform=" translate(-670.655, -541.1)" d="M 540.22 541.11 c 0 139.69 113.65 253.34 253.34 253.34 c 2.53 0 5.02 -0.12 7.53 -0.19 v -99.2 c -2.5 0.12 -5 0.19 -7.53 0.19 c -85 0 -154.15 -69.15 -154.15 -154.15 c 0 -85 69.15 -154.15 154.15 -154.15 c 2.53 0 5.03 0.07 7.53 0.19 v -99.2 c -2.51 -0.07 -5 -0.19 -7.53 -0.19 C 653.87 287.77 540.22 401.42 540.22 541.11 z" stroke-linecap="round"/>
</g>
		<g transform="matrix(1 0 0 1 -85.735 1.12)">
<path style="stroke: none; stroke-width: 1; stroke-dasharray: none; stroke-linecap: butt; stroke-dashoffset: 0; stroke-linejoin: miter; stroke-miterlimit: 4; is-custom-font: none; font-file-url: none; fill: rgb(255,246,227); fill-rule: nonzero; opacity: 1;" transform=" translate(-454.265, -541.12)" d="M 540.23 671.84 c -43.61 -27.26 -72.73 -75.61 -72.73 -130.72 s 29.12 -103.46 72.73 -130.72 V 301.3 c -99.86 34 -171.93 128.61 -171.93 239.82 s 72.07 205.82 171.93 239.82 V 671.84 z" stroke-linecap="round"/>
</g>
		<g transform="matrix(1 0 0 1 -246.17 1.11)">
<path style="stroke: none; stroke-width: 1; stroke-dasharray: none; stroke-linecap: butt; stroke-dashoffset: 0; stroke-linejoin: miter; stroke-miterlimit: 4; is-custom-font: none; font-file-url: none; fill: rgb(255,246,227); fill-rule: nonzero; opacity: 1;" transform=" translate(-293.83, -541.11)" d="M 337.81 349.45 c -53.83 46.47 -87.96 115.13 -87.96 191.66 s 34.13 145.2 87.96 191.66 V 349.45 z" stroke-linecap="round"/>
</g>
</g>
</g>
</svg>
